<svg xmlns="http://www.w3.org/2000/svg" xmlns:xlink="http://www.w3.org/1999/xlink" viewBox="0 0 68 85" version="1.1" x="0px" y="0px"><title>lyre</title><desc>Created with Sketch.</desc><g stroke="none" stroke-width="1" fill="none" fill-rule="evenodd"><g transform="translate(-536.000000, -296.000000)" fill="#000000"><g transform="translate(536.000000, 296.000000)"><path d="M68,10 C68,4.4771525 63.5228475,0 58,0 C52.4771525,0 48,4.4771525 48,10 C48,11.0668486 48.0072446,11.4804848 48.04891,12.0421686 C48.1473391,13.3690718 48.4357822,14.6319019 49.1026334,16.6324555 C49.0287237,16.4107264 51.8696164,23.9772886 53.0434159,27.4995396 C53.998502,30.3654915 54.8064158,33.0803268 55.445106,35.6403155 C56.4552229,39.6890516 57,43.1901927 57,46 C57,55.8306954 46.7883693,64 34,64 C21.2116307,64 11,55.8306954 11,46 C11,43.1967843 11.5382672,39.7156372 12.5369549,35.6964263 C13.1782276,33.115629 13.9922682,30.3781712 14.9564123,27.4876565 C16.1291732,23.9717063 18.9676385,16.4216398 18.8973667,16.6324555 C19.5930398,14.5454359 19.8830072,13.1957039 19.9666801,11.7516347 C19.9949226,11.264211 20,10.8994362 20,10 C20,4.4771525 15.5228475,0 10,0 C4.4771525,0 0,4.4771525 0,10 C0,12.6865064 1.06696915,15.2091048 2.92893219,17.0710678 C3.70998077,17.8521164 4.97631073,17.8521164 5.75735931,17.0710678 C6.5384079,16.2900192 6.5384079,15.0236893 5.75735931,14.2426407 C4.63810541,13.1233868 4,11.6147361 4,10 C4,6.6862915 6.6862915,4 10,4 C13.3137085,4 16,6.6862915 16,10 C16,10.8206857 15.9956011,11.1367128 15.9733779,11.5202531 C15.9120223,12.5791595 15.6943376,13.5924319 15.1026334,15.3675445 C15.2047893,15.0610769 12.3665107,22.6106465 11.1619309,26.2219903 C10.1668549,29.2052393 9.32378983,32.0403007 8.65499917,34.7318436 C7.58458478,39.0397181 7,42.8204158 7,46 C7,58.2606946 19.1741318,68 34,68 C48.8258682,68 61,58.2606946 61,46 C61,42.8116955 60.4085216,39.0104174 59.3261418,34.672038 C58.6602752,32.0031213 57.8237609,29.1921798 56.8382409,26.2349041 C55.6328453,22.6178418 52.7918845,15.0510982 52.8973666,15.3675445 C52.3268489,13.6559914 52.1087973,12.7013416 52.03795,11.7462633 C52.006179,11.3179641 52,10.9651692 52,10 C52,6.6862915 54.6862915,4 58,4 C61.3137085,4 64,6.6862915 64,10 C64,11.6147361 63.3618946,13.1233868 62.2426407,14.2426407 C61.4615921,15.0236893 61.4615921,16.2900192 62.2426407,17.0710678 C63.0236893,17.8521164 64.2900192,17.8521164 65.0710678,17.0710678 C66.9330308,15.2091048 68,12.6865064 68,10 Z"/><path d="M36,25 C36,23.8954305 35.1045695,23 34,23 C32.8954305,23 32,23.8954305 32,25 L32,59 C32,60.1045695 32.8954305,61 34,61 C35.1045695,61 36,60.1045695 36,59 L36,25 Z"/><path d="M26,25 C26,23.8954305 25.1045695,23 24,23 C22.8954305,23 22,23.8954305 22,25 L22,55 C22,56.1045695 22.8954305,57 24,57 C25.1045695,57 26,56.1045695 26,55 L26,25 Z"/><path d="M51,20 C52.1045695,20 53,19.1045695 53,18 C53,16.8954305 52.1045695,16 51,16 L17,16 C15.8954305,16 15,16.8954305 15,18 C15,19.1045695 15.8954305,20 17,20 L51,20 Z"/><path d="M46,25 C46,23.8954305 45.1045695,23 44,23 C42.8954305,23 42,23.8954305 42,25 L42,55 C42,56.1045695 42.8954305,57 44,57 C45.1045695,57 46,56.1045695 46,55 L46,25 Z"/></g></g></g><text x="0" y="83" fill="#000000" font-size="5px" font-weight="bold" font-family="'Helvetica Neue', Helvetica, Arial-Unicode, Arial, Sans-serif">Created by Andrejs Kirma</text><text x="0" y="88" fill="#000000" font-size="5px" font-weight="bold" font-family="'Helvetica Neue', Helvetica, Arial-Unicode, Arial, Sans-serif">from the Noun Project</text></svg>